<svg aria-hidden="true" style="position: absolute; width: 0; height: 0; overflow: hidden;" version="1.1" xmlns="http://www.w3.org/2000/svg" xmlns:xlink="http://www.w3.org/1999/xlink">
<defs>
<symbol id="icon-favirite-heart" viewBox="0 0 32 32">
<path d="M16 30.72l-2.24-2.24c-8.32-7.36-13.76-12.32-13.76-18.4 0-4.96 3.84-8.8 8.8-8.8 2.72 0 5.44 1.28 7.2 3.36 1.76-2.080 4.48-3.36 7.2-3.36 4.96 0 8.8 3.84 8.8 8.8 0 6.080-5.44 11.040-13.76 18.4l-2.24 2.24z"></path>
</symbol>
<symbol id="icon-close" viewBox="0 0 32 32">
<path d="M31.556 3.578l-3.133-3.133-12.422 12.422-12.422-12.422-3.133 3.133 12.422 12.422-12.422 12.422 3.133 3.133 12.422-12.422 12.422 12.422 3.133-3.133-12.422-12.422 12.422-12.422z"></path>
</symbol>
<symbol id="icon-vector" viewBox="0 0 32 32">
<path d="M31.805 15.529l-10-10c-0.26-0.26-0.682-0.26-0.943 0s-0.26 0.682 0 0.943l8.862 8.862h-29.057c-0.368 0-0.667 0.298-0.667 0.667s0.298 0.667 0.667 0.667h29.057l-8.862 8.862c-0.26 0.26-0.26 0.682 0 0.943 0.13 0.13 0.301 0.195 0.471 0.195s0.341-0.065 0.471-0.195l10-10c0.26-0.26 0.26-0.682 0-0.943z"></path>
</symbol>
<symbol id="icon-sign-out" viewBox="0 0 32 32">
<path d="M25.293 9.293l-1.414 1.414 4.293 4.293h-14.172v2h14.172l-4.293 4.293 1.414 1.414 6.707-6.707-6.707-6.707z"></path>
<path d="M22 30h-20v-28h20v2h2v-3c0-0.553-0.447-1-1-1h-22c-0.553 0-1 0.447-1 1v30c0 0.553 0.447 1 1 1h22c0.553 0 1-0.447 1-1v-3h-2v2z"></path>
</symbol>
<symbol id="icon-menu" viewBox="0 0 32 32">
<path d="M1 26h30v-3.333h-30v3.333zM1 17.667h30v-3.333h-30v3.333zM1 6v3.333h30v-3.333h-30z"></path>
</symbol>

  <symbol  id="icon-heart" viewBox="0 0 16 16">
    <path d="M8 15.36L6.88 14.24C2.72 10.56 0 8.08001 0 5.04001C0 2.56001 1.92 0.640015 4.4 0.640015C5.76 0.640015 7.12 1.28001 8 2.32001C8.88 1.28001 10.24 0.640015 11.6 0.640015C14.08 0.640015 16 2.56001 16 5.04001C16 8.08001 13.28 10.56 9.12 14.24L8 15.36Z"></path>
  </symbol>
</defs>
</svg>
