<svg aria-hidden="true" style="position: absolute; width: 0; height: 0; overflow: hidden;" version="1.1"
  xmlns="http://www.w3.org/2000/svg" xmlns:xlink="http://www.w3.org/1999/xlink">
  <defs>
    <symbol id="icon-favirite-heart" viewBox="0 0 32 32">
      <path
        d="M16 30.72l-2.24-2.24c-8.32-7.36-13.76-12.32-13.76-18.4 0-4.96 3.84-8.8 8.8-8.8 2.72 0 5.44 1.28 7.2 3.36 1.76-2.080 4.48-3.36 7.2-3.36 4.96 0 8.8 3.84 8.8 8.8 0 6.080-5.44 11.040-13.76 18.4l-2.24 2.24z">
      </path>
    </symbol>
    <symbol id="icon-close" viewBox="0 0 32 32">
      <path
        d="M31.556 3.578l-3.133-3.133-12.422 12.422-12.422-12.422-3.133 3.133 12.422 12.422-12.422 12.422 3.133 3.133 12.422-12.422 12.422 12.422 3.133-3.133-12.422-12.422 12.422-12.422z">
      </path>
    </symbol>
    <symbol id="icon-vector" viewBox="0 0 32 32">
      <path
        d="M31.805 15.529l-10-10c-0.26-0.26-0.682-0.26-0.943 0s-0.26 0.682 0 0.943l8.862 8.862h-29.057c-0.368 0-0.667 0.298-0.667 0.667s0.298 0.667 0.667 0.667h29.057l-8.862 8.862c-0.26 0.26-0.26 0.682 0 0.943 0.13 0.13 0.301 0.195 0.471 0.195s0.341-0.065 0.471-0.195l10-10c0.26-0.26 0.26-0.682 0-0.943z">
      </path>
    </symbol>
    <symbol id="icon-sign-out" viewBox="0 0 32 32">
      <path
        d="M25.293 9.293l-1.414 1.414 4.293 4.293h-14.172v2h14.172l-4.293 4.293 1.414 1.414 6.707-6.707-6.707-6.707z">
      </path>
      <path
        d="M22 30h-20v-28h20v2h2v-3c0-0.553-0.447-1-1-1h-22c-0.553 0-1 0.447-1 1v30c0 0.553 0.447 1 1 1h22c0.553 0 1-0.447 1-1v-3h-2v2z">
      </path>
    </symbol>
    <symbol id="icon-menu" viewBox="0 0 32 32">
      <path d="M1 26h30v-3.333h-30v3.333zM1 17.667h30v-3.333h-30v3.333zM1 6v3.333h30v-3.333h-30z"></path>
    </symbol>

    <symbol id="icon-heart" viewBox="0 0 16 16">
      <path
        d="M8 15.36L6.88 14.24C2.72 10.56 0 8.08001 0 5.04001C0 2.56001 1.92 0.640015 4.4 0.640015C5.76 0.640015 7.12 1.28001 8 2.32001C8.88 1.28001 10.24 0.640015 11.6 0.640015C14.08 0.640015 16 2.56001 16 5.04001C16 8.08001 13.28 10.56 9.12 14.24L8 15.36Z">
      </path>
    </symbol>
    <symbol id="icon-facebook" viewBox="0 0 32 32">
      <path fill="#1877f2" style="fill: var(--color1, #1877f2)"
        d="M31.997 15.999c0-8.836-7.163-15.999-15.999-15.999s-15.999 7.163-15.999 15.999c0 7.985 5.851 14.604 13.499 15.804v-11.18h-4.062v-4.625h4.062v-3.525c0-4.010 2.389-6.225 6.043-6.225 1.75 0 3.581 0.313 3.581 0.313v3.937h-2.017c-1.987 0-2.607 1.233-2.607 2.498v3.001h4.437l-0.709 4.625h-3.728v11.18c7.649-1.2 13.499-7.819 13.499-15.804z">
      </path>
    </symbol>
    <symbol id="icon-github" viewBox="0 0 32 32">
      <path
        d="M16 0.395c-8.836 0-16 7.163-16 16 0 7.069 4.585 13.067 10.942 15.182 0.8 0.148 1.094-0.347 1.094-0.77 0-0.381-0.015-1.642-0.022-2.979-4.452 0.968-5.391-1.888-5.391-1.888-0.728-1.849-1.776-2.341-1.776-2.341-1.452-0.993 0.11-0.973 0.11-0.973 1.606 0.113 2.452 1.649 2.452 1.649 1.427 2.446 3.743 1.739 4.656 1.33 0.143-1.034 0.558-1.74 1.016-2.14-3.554-0.404-7.29-1.777-7.29-7.907 0-1.747 0.625-3.174 1.649-4.295-0.166-0.403-0.714-2.030 0.155-4.234 0 0 1.344-0.43 4.401 1.64 1.276-0.355 2.645-0.532 4.005-0.539 1.359 0.006 2.729 0.184 4.008 0.539 3.054-2.070 4.395-1.64 4.395-1.64 0.871 2.204 0.323 3.831 0.157 4.234 1.026 1.12 1.647 2.548 1.647 4.295 0 6.145-3.743 7.498-7.306 7.895 0.574 0.497 1.085 1.47 1.085 2.963 0 2.141-0.019 3.864-0.019 4.391 0 0.426 0.288 0.925 1.099 0.768 6.354-2.118 10.933-8.113 10.933-15.18 0-8.837-7.164-16-16-16z">
      </path>
    </symbol>
    <symbol id="icon-linkedin" viewBox="0 0 32 32">
      <path
        d="M29 0h-26c-1.65 0-3 1.35-3 3v26c0 1.65 1.35 3 3 3h26c1.65 0 3-1.35 3-3v-26c0-1.65-1.35-3-3-3zM12 26h-4v-14h4v14zM10 10c-1.106 0-2-0.894-2-2s0.894-2 2-2c1.106 0 2 0.894 2 2s-0.894 2-2 2zM26 26h-4v-8c0-1.106-0.894-2-2-2s-2 0.894-2 2v8h-4v-14h4v2.481c0.825-1.131 2.087-2.481 3.5-2.481 2.488 0 4.5 2.238 4.5 5v9z">
      </path>
    </symbol>
    <symbol id="icon-logo" viewBox="0 0 147 32">
      <path fill="none" stroke="#121d2e" style="stroke: var(--color1, #121d2e)" stroke-linejoin="miter"
        stroke-linecap="butt" stroke-miterlimit="4" stroke-width="1.1429"
        d="M147.429 0.49h-147.429v31.086h147.429v-31.086z"></path>
      <path fill="#121d2e" style="fill: var(--color1, #121d2e)"
        d="M69.613 25.247h5.265v-2.305h-2.234v-13.060h2.234v-2.303h-5.265v17.668zM80.551 21.584h3.147v-10.72h4.352v-2.491h-11.851v2.491h4.352v10.72zM99.28 16.544c0.022-0.973-0.222-1.934-0.709-2.784-0.457-0.781-1.135-1.418-1.953-1.835-0.873-0.427-1.838-0.647-2.816-0.642s-1.94 0.235-2.809 0.67c-0.831 0.429-1.523 1.072-2.001 1.858-0.49 0.815-0.742 1.745-0.729 2.689-0.016 0.949 0.24 1.883 0.738 2.699 0.502 0.802 1.23 1.447 2.098 1.858 0.974 0.46 2.046 0.688 3.128 0.666 0.799 0.053 1.601-0.067 2.346-0.351s1.418-0.725 1.967-1.291l-1.613-1.699c-0.336 0.323-0.735 0.577-1.175 0.746-0.464 0.164-0.954 0.244-1.448 0.235-0.703 0.025-1.397-0.167-1.982-0.547-0.522-0.352-0.884-0.886-1.010-1.491h7.907c0.039-0.491 0.058-0.755 0.058-0.793l0.001 0.010zM93.86 13.506c0.625-0.018 1.234 0.186 1.714 0.575 0.471 0.392 0.776 0.941 0.855 1.539h-5.153c0.075-0.602 0.38-1.155 0.855-1.548 0.488-0.385 1.102-0.586 1.729-0.566zM105.402 21.735c0.902 0.019 1.8-0.119 2.651-0.406 0.666-0.217 1.255-0.613 1.699-1.141 0.385-0.48 0.59-1.072 0.583-1.68 0.039-0.633-0.177-1.255-0.602-1.736-0.385-0.405-0.875-0.701-1.418-0.858-0.69-0.189-1.39-0.337-2.098-0.444-0.567-0.069-1.126-0.189-1.671-0.359-0.152-0.037-0.287-0.123-0.382-0.244s-0.145-0.27-0.143-0.422c0.007-0.146 0.056-0.288 0.142-0.408s0.205-0.214 0.344-0.272c0.456-0.203 0.957-0.293 1.457-0.264 1.055-0.008 2.093 0.252 3.011 0.755l1.010-2.095c-0.567-0.308-1.18-0.528-1.817-0.651-0.724-0.157-1.464-0.236-2.206-0.236-0.883-0.019-1.763 0.122-2.593 0.415-0.659 0.225-1.238 0.628-1.671 1.16-0.38 0.492-0.581 1.093-0.571 1.709-0.044 0.647 0.175 1.285 0.611 1.776 0.395 0.408 0.894 0.707 1.447 0.868 0.695 0.192 1.402 0.337 2.118 0.434 0.548 0.051 1.088 0.159 1.613 0.321 0.146 0.032 0.277 0.111 0.372 0.224s0.149 0.253 0.152 0.399c0 0.617-0.641 0.925-1.923 0.925-0.657-0.003-1.311-0.095-1.943-0.273-0.596-0.155-1.165-0.394-1.69-0.708l-1.010 2.109c0.613 0.366 1.282 0.634 1.983 0.792 0.831 0.208 1.687 0.313 2.545 0.312v-0.001zM118.711 19.017c-0.352 0.257-0.784 0.39-1.224 0.378-0.176 0.011-0.353-0.014-0.519-0.075s-0.318-0.153-0.443-0.274c-0.242-0.274-0.366-0.63-0.343-0.991v-4.131h2.603v-2.265h-2.602v-2.475h-3.031v2.472h-1.609v2.267h1.613v4.171c-0.036 0.496 0.035 0.994 0.21 1.461s0.45 0.894 0.806 1.251c0.803 0.659 1.836 0.99 2.886 0.925 0.463 0.002 0.923-0.052 1.371-0.161 0.395-0.089 0.768-0.253 1.098-0.481l-0.816-2.073zM120.944 23.282h9.714v-1.699h-9.714v1.699zM137.417 25.247v-17.668h-5.246v2.303h2.215v13.060h-2.215v2.305h5.246z">
      </path>
      <path fill="#121d2e" style="fill: var(--color1, #121d2e)"
        d="M0 0.49h52.893l8.816 16.165-8.816 14.921h-52.893v-31.086z"></path>
      <path fill="#fff" style="fill: var(--color2, #fff)"
        d="M18.357 8.372h-5.887v13.211h3.147v-3.643h2.743c1.076 0.025 2.146-0.171 3.138-0.575 0.837-0.346 1.549-0.926 2.045-1.666 0.49-0.76 0.74-1.642 0.719-2.538 0.023-0.898-0.227-1.783-0.719-2.543-0.501-0.737-1.213-1.316-2.049-1.665-0.991-0.408-2.061-0.606-3.137-0.581zM18.182 15.45h-2.565v-4.586h2.565c0.77-0.053 1.534 0.158 2.161 0.595 0.25 0.21 0.446 0.474 0.574 0.77s0.184 0.617 0.164 0.937c0.019 0.318-0.038 0.636-0.166 0.929s-0.324 0.553-0.572 0.761c-0.626 0.436-1.388 0.646-2.157 0.594h-0.005zM29.761 12.77v-1.34h-2.895v10.154h3.031v-4.794c-0.030-0.384 0.019-0.77 0.146-1.134s0.328-0.701 0.592-0.988c0.274-0.245 0.596-0.434 0.946-0.555s0.722-0.174 1.094-0.153c0.117 0 0.343 0.013 0.68 0.038v-2.718c-0.728-0.014-1.451 0.115-2.127 0.378-0.586 0.229-1.094 0.614-1.466 1.11l-0.001 0.003zM40.618 21.735c1.026 0.018 2.041-0.21 2.953-0.666 0.844-0.424 1.55-1.068 2.040-1.858 0.499-0.816 0.754-1.75 0.738-2.699 0.017-0.948-0.237-1.883-0.735-2.699-0.49-0.791-1.196-1.434-2.040-1.858-0.92-0.441-1.932-0.67-2.958-0.67s-2.038 0.229-2.958 0.67c-0.848 0.422-1.558 1.066-2.050 1.858-0.499 0.816-0.754 1.75-0.738 2.699-0.016 0.949 0.24 1.883 0.738 2.699 0.492 0.793 1.202 1.436 2.050 1.858 0.916 0.455 1.934 0.684 2.962 0.666h-0.003zM40.618 19.319c-0.358 0.011-0.714-0.052-1.045-0.184s-0.63-0.33-0.878-0.581c-0.259-0.276-0.46-0.599-0.59-0.95s-0.187-0.724-0.168-1.097c-0.019-0.373 0.038-0.746 0.168-1.097s0.33-0.674 0.59-0.95c0.248-0.251 0.547-0.449 0.878-0.58s0.688-0.194 1.045-0.183c0.357-0.011 0.712 0.051 1.041 0.183s0.627 0.33 0.873 0.581c0.518 0.56 0.787 1.296 0.747 2.048 0.039 0.752-0.23 1.488-0.747 2.048-0.245 0.252-0.543 0.45-0.873 0.582s-0.685 0.194-1.042 0.183v-0.002z">
      </path>
    </symbol>
  </defs>
</svg>